/* XPM */
static char * close_xpm[] = {
"48 48 2 1",
" 	g None",
".	g #000000",
"                                                ",
"                                                ",
"                                                ",
"    .....                              .....    ",
"   .......                            .......   ",
"   ........                          ........   ",
"   .........                        .........   ",
"   ..........                      ..........   ",
"   ...........                    ...........   ",
"    ...........                  ...........    ",
"     ...........                ...........     ",
"      ...........              ...........      ",
"       ...........            ...........       ",
"        ...........          ...........        ",
"         ...........        ...........         ",
"          ...........      ...........          ",
"           ...........    ...........           ",
"            ...........  ...........            ",
"             ......................             ",
"              ....................              ",
"               ..................               ",
"                ................                ",
"                 ..............                 ",
"                  ............                  ",
"                 .............                  ",
"                ...............                 ",
"               .................                ",
"              ...................               ",
"             .....................              ",
"            ........... ...........             ",
"           ...........   ...........            ",
"          ...........     ...........           ",
"         ...........       ...........          ",
"        ...........         ...........         ",
"       ...........           ...........        ",
"      ...........             ...........       ",
"     ...........               ...........      ",
"    ...........                 ...........     ",
"   ...........                   ...........    ",
"   ..........                     ..........    ",
"   .........                       .........    ",
"   ........                         ........    ",
"   .......                           .......    ",
"    .....                             .....     ",
"                                                ",
"                                                ",
"                                                ",
"                                                "};
